<svg width="24" height="29" viewBox="0 0 24 29" fill="none" xmlns="http://www.w3.org/2000/svg">
<path d="M23.7162 20.8501C23.0694 22.2868 22.7577 22.929 21.9256 24.197C20.7608 25.9688 19.1178 28.1813 17.0881 28.1954C15.2811 28.2118 14.8147 27.0165 12.3608 27.0376C9.90922 27.0493 9.39828 28.2188 7.5889 28.2001C5.55687 28.1813 4.00297 26.1892 2.83812 24.4196C-0.41969 19.4579 -0.764221 13.6407 1.24906 10.547C2.67406 8.35322 4.9264 7.06416 7.04281 7.06416C9.19906 7.06416 10.5537 8.24775 12.335 8.24775C14.0647 8.24775 15.117 7.06182 17.6108 7.06182C19.4952 7.06182 21.4873 8.08838 22.9123 9.86025C18.253 12.4149 19.01 19.0688 23.7162 20.8501ZM15.717 5.08135C16.6241 3.9165 17.3131 2.27354 17.0623 0.600098C15.5834 0.700879 13.8537 1.64541 12.8436 2.86885C11.9272 3.98447 11.1678 5.63916 11.4631 7.23994C13.078 7.2915 14.7491 6.32822 15.717 5.08135Z" fill="black"/>
</svg>
